<svg width="338" height="45" viewBox="0 0 338 45" fill="none" xmlns="http://www.w3.org/2000/svg">
<path d="M75.752 9.8C77.936 9.8 79.832 10.16 81.44 10.88C83.072 11.6 84.32 12.632 85.184 13.976C86.048 15.32 86.48 16.916 86.48 18.764C86.48 20.588 86.048 22.184 85.184 23.552C84.32 24.896 83.072 25.928 81.44 26.648C79.832 27.368 77.936 27.728 75.752 27.728H70.064V35H65.384V9.8H75.752ZM75.536 23.768C77.576 23.768 79.124 23.336 80.18 22.472C81.236 21.608 81.764 20.372 81.764 18.764C81.764 17.156 81.236 15.92 80.18 15.056C79.124 14.192 77.576 13.76 75.536 13.76H70.064V23.768H75.536ZM91.0731 8.288H95.5731V35H91.0731V8.288ZM108.823 15.56C111.655 15.56 113.815 16.244 115.303 17.612C116.815 18.956 117.571 20.996 117.571 23.732V35H113.323V32.66C112.771 33.5 111.979 34.148 110.947 34.604C109.939 35.036 108.715 35.252 107.275 35.252C105.835 35.252 104.575 35.012 103.495 34.532C102.415 34.028 101.575 33.344 100.975 32.48C100.399 31.592 100.111 30.596 100.111 29.492C100.111 27.764 100.747 26.384 102.019 25.352C103.315 24.296 105.343 23.768 108.103 23.768H113.071V23.48C113.071 22.136 112.663 21.104 111.847 20.384C111.055 19.664 109.867 19.304 108.283 19.304C107.203 19.304 106.135 19.472 105.079 19.808C104.047 20.144 103.171 20.612 102.451 21.212L100.687 17.936C101.695 17.168 102.907 16.58 104.323 16.172C105.739 15.764 107.239 15.56 108.823 15.56ZM108.211 31.976C109.339 31.976 110.335 31.724 111.199 31.22C112.087 30.692 112.711 29.948 113.071 28.988V26.756H108.427C105.835 26.756 104.539 27.608 104.539 29.312C104.539 30.128 104.863 30.776 105.511 31.256C106.159 31.736 107.059 31.976 108.211 31.976ZM140.995 15.776L131.995 36.548C131.155 38.636 130.135 40.1 128.935 40.94C127.735 41.804 126.283 42.236 124.579 42.236C123.619 42.236 122.671 42.08 121.735 41.768C120.799 41.456 120.031 41.024 119.431 40.472L121.231 37.16C121.663 37.568 122.167 37.892 122.743 38.132C123.343 38.372 123.943 38.492 124.543 38.492C125.335 38.492 125.983 38.288 126.487 37.88C127.015 37.472 127.495 36.788 127.927 35.828L128.251 35.072L119.863 15.776H124.543L130.591 29.996L136.675 15.776H140.995ZM143.807 8.288H148.307V35H143.807V8.288ZM154.214 15.776H158.714V35H154.214V15.776ZM156.482 12.608C155.666 12.608 154.982 12.356 154.43 11.852C153.878 11.324 153.602 10.676 153.602 9.908C153.602 9.14 153.878 8.504 154.43 8C154.982 7.472 155.666 7.208 156.482 7.208C157.298 7.208 157.982 7.46 158.534 7.964C159.086 8.444 159.362 9.056 159.362 9.8C159.362 10.592 159.086 11.264 158.534 11.816C158.006 12.344 157.322 12.608 156.482 12.608ZM170.56 35.252C169 35.252 167.476 35.048 165.988 34.64C164.5 34.232 163.312 33.716 162.424 33.092L164.152 29.672C165.016 30.248 166.048 30.716 167.248 31.076C168.472 31.412 169.672 31.58 170.848 31.58C173.536 31.58 174.88 30.872 174.88 29.456C174.88 28.784 174.532 28.316 173.836 28.052C173.164 27.788 172.072 27.536 170.56 27.296C168.976 27.056 167.68 26.78 166.672 26.468C165.688 26.156 164.824 25.616 164.08 24.848C163.36 24.056 163 22.964 163 21.572C163 19.748 163.756 18.296 165.268 17.216C166.804 16.112 168.868 15.56 171.46 15.56C172.78 15.56 174.1 15.716 175.42 16.028C176.74 16.316 177.82 16.712 178.66 17.216L176.932 20.636C175.3 19.676 173.464 19.196 171.424 19.196C170.104 19.196 169.096 19.4 168.4 19.808C167.728 20.192 167.392 20.708 167.392 21.356C167.392 22.076 167.752 22.592 168.472 22.904C169.216 23.192 170.356 23.468 171.892 23.732C173.428 23.972 174.688 24.248 175.672 24.56C176.656 24.872 177.496 25.4 178.192 26.144C178.912 26.888 179.272 27.944 179.272 29.312C179.272 31.112 178.492 32.552 176.932 33.632C175.372 34.712 173.248 35.252 170.56 35.252ZM194.703 33.956C194.175 34.388 193.527 34.712 192.759 34.928C192.015 35.144 191.223 35.252 190.383 35.252C188.271 35.252 186.639 34.7 185.487 33.596C184.335 32.492 183.759 30.884 183.759 28.772V19.52H180.591V15.92H183.759V11.528H188.259V15.92H193.407V19.52H188.259V28.664C188.259 29.6 188.487 30.32 188.943 30.824C189.399 31.304 190.059 31.544 190.923 31.544C191.931 31.544 192.771 31.28 193.443 30.752L194.703 33.956ZM221.985 35L221.949 18.296L213.669 32.12H211.581L203.301 18.512V35H198.837V9.8H202.689L212.697 26.504L222.525 9.8H226.377L226.413 35H221.985ZM232.788 15.776H237.288V35H232.788V15.776ZM235.056 12.608C234.24 12.608 233.556 12.356 233.004 11.852C232.452 11.324 232.176 10.676 232.176 9.908C232.176 9.14 232.452 8.504 233.004 8C233.556 7.472 234.24 7.208 235.056 7.208C235.872 7.208 236.556 7.46 237.108 7.964C237.66 8.444 237.936 9.056 237.936 9.8C237.936 10.592 237.66 11.264 237.108 11.816C236.58 12.344 235.896 12.608 235.056 12.608ZM262.274 15.776V32.084C262.274 38.852 258.818 42.236 251.906 42.236C250.058 42.236 248.306 41.996 246.65 41.516C244.994 41.06 243.626 40.388 242.546 39.5L244.562 36.116C245.402 36.812 246.458 37.364 247.73 37.772C249.026 38.204 250.334 38.42 251.654 38.42C253.766 38.42 255.314 37.94 256.298 36.98C257.282 36.02 257.774 34.556 257.774 32.588V31.58C257.006 32.42 256.07 33.056 254.966 33.488C253.862 33.92 252.65 34.136 251.33 34.136C249.506 34.136 247.85 33.752 246.362 32.984C244.898 32.192 243.734 31.088 242.87 29.672C242.03 28.256 241.61 26.636 241.61 24.812C241.61 22.988 242.03 21.38 242.87 19.988C243.734 18.572 244.898 17.48 246.362 16.712C247.85 15.944 249.506 15.56 251.33 15.56C252.722 15.56 253.982 15.788 255.11 16.244C256.262 16.7 257.222 17.396 257.99 18.332V15.776H262.274ZM252.014 30.32C253.718 30.32 255.11 29.816 256.19 28.808C257.294 27.776 257.846 26.444 257.846 24.812C257.846 23.204 257.294 21.896 256.19 20.888C255.11 19.88 253.718 19.376 252.014 19.376C250.286 19.376 248.87 19.88 247.766 20.888C246.686 21.896 246.146 23.204 246.146 24.812C246.146 26.444 246.686 27.776 247.766 28.808C248.87 29.816 250.286 30.32 252.014 30.32ZM272.474 18.584C273.77 16.568 276.05 15.56 279.314 15.56V19.844C278.93 19.772 278.582 19.736 278.27 19.736C276.518 19.736 275.15 20.252 274.166 21.284C273.182 22.292 272.69 23.756 272.69 25.676V35H268.19V15.776H272.474V18.584ZM290.37 15.56C293.202 15.56 295.362 16.244 296.85 17.612C298.362 18.956 299.118 20.996 299.118 23.732V35H294.87V32.66C294.318 33.5 293.526 34.148 292.494 34.604C291.486 35.036 290.262 35.252 288.822 35.252C287.382 35.252 286.122 35.012 285.042 34.532C283.962 34.028 283.122 33.344 282.522 32.48C281.946 31.592 281.658 30.596 281.658 29.492C281.658 27.764 282.294 26.384 283.566 25.352C284.862 24.296 286.89 23.768 289.65 23.768H294.618V23.48C294.618 22.136 294.21 21.104 293.394 20.384C292.602 19.664 291.414 19.304 289.83 19.304C288.75 19.304 287.682 19.472 286.626 19.808C285.594 20.144 284.718 20.612 283.998 21.212L282.234 17.936C283.242 17.168 284.454 16.58 285.87 16.172C287.286 15.764 288.786 15.56 290.37 15.56ZM289.758 31.976C290.886 31.976 291.882 31.724 292.746 31.22C293.634 30.692 294.258 29.948 294.618 28.988V26.756H289.974C287.382 26.756 286.086 27.608 286.086 29.312C286.086 30.128 286.41 30.776 287.058 31.256C287.706 31.736 288.606 31.976 289.758 31.976ZM316.449 33.956C315.921 34.388 315.273 34.712 314.505 34.928C313.761 35.144 312.969 35.252 312.129 35.252C310.017 35.252 308.385 34.7 307.233 33.596C306.081 32.492 305.505 30.884 305.505 28.772V19.52H302.337V15.92H305.505V11.528H310.005V15.92H315.153V19.52H310.005V28.664C310.005 29.6 310.233 30.32 310.689 30.824C311.145 31.304 311.805 31.544 312.669 31.544C313.677 31.544 314.517 31.28 315.189 30.752L316.449 33.956ZM337.59 25.496C337.59 25.808 337.566 26.252 337.518 26.828H322.434C322.698 28.244 323.382 29.372 324.486 30.212C325.614 31.028 327.006 31.436 328.662 31.436C330.774 31.436 332.514 30.74 333.882 29.348L336.294 32.12C335.43 33.152 334.338 33.932 333.018 34.46C331.698 34.988 330.21 35.252 328.554 35.252C326.442 35.252 324.582 34.832 322.974 33.992C321.366 33.152 320.118 31.988 319.23 30.5C318.366 28.988 317.934 27.284 317.934 25.388C317.934 23.516 318.354 21.836 319.194 20.348C320.058 18.836 321.246 17.66 322.758 16.82C324.27 15.98 325.974 15.56 327.87 15.56C329.742 15.56 331.41 15.98 332.874 16.82C334.362 17.636 335.514 18.8 336.33 20.312C337.17 21.8 337.59 23.528 337.59 25.496ZM327.87 19.16C326.43 19.16 325.206 19.592 324.198 20.456C323.214 21.296 322.614 22.424 322.398 23.84H333.306C333.114 22.448 332.526 21.32 331.542 20.456C330.558 19.592 329.334 19.16 327.87 19.16Z" fill="white"/>
<g clip-path="url(#clip0_114:472)">
<path d="M41.4849 1H0V43.5L7.89996 35.774V8.72699H26.667V14.522L41.4849 1Z" fill="white"/>
<path d="M1.97498 44.461H43.461V1.96097L35.561 9.68698V36.729H16.791V30.934L1.97498 44.461Z" fill="white"/>
</g>
<defs>
<clipPath id="clip0_114:472">
<rect width="43.461" height="43.461" fill="white" transform="translate(0 1)"/>
</clipPath>
</defs>
</svg>
